<svg width="104" height="49" viewBox="0 0 104 49" fill="none" xmlns="http://www.w3.org/2000/svg">
<path d="M60.0583 26.6498C60.0583 26.6498 58.6452 28.3452 56.102 28.3452C52.9936 28.3452 50.7329 26.0848 50.7329 22.4957V14.2158H54.5477V22.1284C54.5477 23.6825 55.6782 24.813 57.2324 24.813C58.9279 24.813 60.0583 23.6825 60.0583 21.5632V14.2158H63.8733V28.0627H60.0583V26.6498Z" fill="white"/>
<path d="M75.4591 17.8891C75.4591 17.8891 75.0353 17.7478 74.1875 17.7478C72.2091 17.7478 70.9375 19.0196 70.9375 21.4216V28.0624H67.1226V14.2155H70.9375V15.911C70.9375 15.911 72.3509 14.0742 74.8939 14.0742H75.4591V17.8891Z" fill="white"/>
<path d="M91.7077 21.1388C91.7077 25.2364 88.5994 28.3449 85.0669 28.3449C82.3823 28.3449 80.9694 26.3667 80.9694 26.3667V28.0623H77.1543V8.28125H80.9694V15.911C80.9694 15.911 82.3825 13.9328 85.0669 13.9328C88.5994 13.9328 91.7077 17.0413 91.7077 21.1388ZM87.7512 21.1388C87.7512 18.8782 86.1974 17.3239 84.3602 17.3239C82.5233 17.3239 80.9694 18.8782 80.9694 21.1388C80.9694 23.3995 82.5233 24.9539 84.3602 24.9539C86.1974 24.9539 87.7512 23.3995 87.7512 21.1388Z" fill="white"/>
<path d="M101.598 18.3128C101.598 18.3128 100.75 17.1826 99.3372 17.1826C98.2066 17.1826 97.6415 17.7475 97.6415 18.3128C97.6415 20.291 104 19.3019 104 23.9649C104 26.3667 102.022 28.3447 98.4892 28.3447C94.5331 28.3447 92.8374 25.8015 92.8374 25.8015L94.9568 23.6818C94.9568 23.6818 96.0872 25.2364 97.9241 25.2364C99.1957 25.2364 99.761 24.6711 99.761 23.9649C99.761 21.8452 93.4026 22.8908 93.4026 18.3128C93.4026 16.1933 95.6633 13.9326 98.7718 13.9326C102.022 13.9326 103.576 16.0521 103.576 16.0521L101.598 18.3128Z" fill="white"/>
<path d="M23.6003 48.4782C17.2356 48.4782 11.2619 45.8514 6.77976 41.0815C2.47683 36.5024 0.00923539 30.3009 0.00923539 24.0676L0 5.60815C0 2.51558 2.51558 0 5.60731 0C8.69932 0 11.2146 2.51558 11.2146 5.60731V24.0676C11.2146 30.6102 15.0473 37.2121 23.6097 37.2121C27.4897 37.2121 30.7013 35.8572 32.897 33.2941C34.9025 30.9528 36.0072 27.676 36.0072 24.0676L36.0286 5.60535C36.0286 4.36295 34.9974 3.3507 33.7298 3.3507C32.4853 3.3507 31.4729 4.36295 31.4729 5.60731L31.4786 24.7512C31.4786 26.938 30.7638 28.9314 29.4659 30.3654C28.0336 31.9473 26.007 32.7833 23.6045 32.7833C21.1968 32.7833 19.167 31.9472 17.7343 30.3655C16.4368 28.9328 15.7221 26.9392 15.7221 24.7516V10.4911H19.0728V24.7516C19.0728 29.0954 22.5413 29.4331 23.6045 29.4331C26.9398 29.4331 28.1281 27.0149 28.1281 24.7516L28.1225 5.60801C28.1225 2.51558 30.6379 0 33.7298 0C36.8447 0 39.3791 2.51558 39.3791 5.60731L39.3577 24.0696C39.3577 28.4749 37.967 32.5256 35.4413 35.4738C32.5897 38.8029 28.4984 40.5626 23.6097 40.5626C18.7561 40.5626 14.6775 38.8039 11.8147 35.4765C9.26736 32.5159 7.8642 28.4643 7.8642 24.0676V5.60731C7.8642 4.36295 6.85181 3.3507 5.60731 3.3507C4.36281 3.3507 3.35042 4.36295 3.35042 5.60731L3.35952 24.0668C3.35952 29.4576 5.49636 34.8223 9.22147 38.7868C13.0637 42.8758 18.17 45.128 23.6003 45.128C29.0904 45.128 34.2297 42.876 38.0713 38.7868C41.7844 34.8352 43.9137 29.4701 43.9137 24.0675V10.4944H47.2644V24.0676C47.2644 30.3136 44.8035 36.5148 40.5133 41.0814C36.0314 45.8514 30.025 48.4782 23.6003 48.4782Z" fill="white"/>
</svg>
